# xmcd CD database file
#
# Track frame offsets:
#	150
#	25005
#	60650
#	97692
#	124000
#	149372
#	181834
#	218475
#	247907
#
# Disc length: 3589 seconds
#
# Revision: 0
# Processed by: cddbd v1.5.2PL0 Copyright (c) Steve Scherf et al.
# Submitted via: CDex 1.51
#
DISCID=6a0e0309
DTITLE=Dave Brandom - Home
DYEAR=1900
DGENRE=Jazz
TTITLE0=Wintergreen
TTITLE1=Home
TTITLE2=Gusano Loco
TTITLE3=Hide Your Tears
TTITLE4=Flat Out
TTITLE5=Belize
TTITLE6=MOB
TTITLE7=When I Hold You
TTITLE8=Full House
EXTD=
EXTT0=
EXTT1=
EXTT2=
EXTT3=
EXTT4=
EXTT5=
EXTT6=
EXTT7=
EXTT8=
PLAYORDER=
